Coordinates
version=1
nRows=22
nColumns=24
inDegrees=yes

Units are S.I. units (second, meters, Newtons, ...)
Angles are in degrees.

endheader
time	pelvis_tilt	pelvis_list	pelvis_rotation	pelvis_tx	pelvis_ty	pelvis_tz	hip_flexion_r	hip_adduction_r	hip_rotation_r	knee_angle_r	ankle_angle_r	subtalar_angle_r	mtp_angle_r	hip_flexion_l	hip_adduction_l	hip_rotation_l	knee_angle_l	ankle_angle_l	subtalar_angle_l	mtp_angle_l	lumbar_extension	lumbar_bending	lumbar_rotation
      2.46500000	     13.40828158	      0.64631897	     -1.17152543	      0.59507498	      0.94730458	      0.00017436	    -20.60452647	     -4.90299252	     -2.12385841	    -29.10256728	     23.45826508	     13.10999529	     36.78414405	      2.39130206	      0.21200170	     -6.67762749	    -17.49898920	      7.67182631	     10.98985343	     17.23169118	    -28.36395128	     -1.69394786	      2.61186246
      2.47000000	     13.42539273	      0.71372322	     -1.14976676	      0.59945220	      0.94799838	     -0.00098860	    -20.05920627	     -5.22043618	     -2.46956778	    -30.62716643	     22.60007040	     13.96846331	     36.98067160	      2.00698666	      0.34399213	     -6.73881009	    -17.36464092	      7.90959823	     11.32404622	     17.18721944	    -28.39461896	     -1.80216806	      2.51432514
      2.47500000	     13.44194384	      0.80206050	     -1.14305108	      0.60385630	      0.94872583	     -0.00214177	    -19.50282913	     -5.56829257	     -2.80093250	    -32.10999814	     21.46284764	     14.53065232	     40.23473337	      1.56431437	      0.51072622	     -6.83624299	    -17.11427455	      8.16973513	     11.53119443	     16.14853311	    -28.41691003	     -1.93462634	      2.40537363
      2.48000000	     13.44590342	      0.88308374	     -1.15644800	      0.60820394	      0.94939929	     -0.00321604	    -18.89887644	     -5.91388859	     -3.07816129	    -33.64532024	     20.54823330	     15.21528511	     40.40233734	      1.11505455	      0.65689151	     -7.03277477	    -16.81338274	      8.35230873	     11.87648544	     16.10917112	    -28.42833760	     -2.06989650	      2.32180616
      2.48500000	     13.43930846	      0.99615734	     -1.16307966	      0.61254886	      0.95006512	     -0.00431748	    -18.28019814	     -6.28936771	     -3.34658989	    -35.13362544	     19.45926904	     15.63785639	     42.72817223	      0.63691525	      0.85386624	     -7.20345415	    -16.42190189	      8.51012114	     12.09020207	     15.39747823	    -28.42362512	     -2.23239657	      2.18552741
      2.49000000	     13.44836457	      1.02117236	     -1.20493812	      0.61683719	      0.95075538	     -0.00524767	    -17.66186032	     -6.56298163	     -3.49017539	    -36.59859725	     18.49271802	     16.12727797	     42.83961892	      0.12552222	      0.93256127	     -7.52915974	    -16.00434160	      8.66485284	     12.54657488	     15.38009450	    -28.44105584	     -2.32664749	      2.14259457
      2.49500000	     13.43697876	      1.07294196	     -1.24961794	      0.62113260	      0.95139902	     -0.00618125	    -17.01161014	     -6.86388355	     -3.63458272	    -38.04756757	     17.57613969	     16.47850928	     43.03114402	     -0.39598417	      1.05293966	     -7.85120507	    -15.51308068	      8.78633822	     12.91563412	     15.33007890	    -28.42938587	     -2.44684654	      2.07927806
      2.50000000	     13.43659460	      1.11210913	     -1.28066034	      0.62537529	      0.95205091	     -0.00707300	    -16.37303365	     -7.12868466	     -3.75157002	    -39.44663158	     16.66011693	     16.64132016	     43.14647008	     -0.93403128	      1.16026591	     -8.18323195	    -15.00341637	      8.84488249	     13.26923315	     15.29387658	    -28.43492080	     -2.55203321	      1.97082322
      2.50500000	     13.42828020	      1.13748210	     -1.34296058	      0.62964824	      0.95266254	     -0.00790871	    -15.71846873	     -7.38689164	     -3.85140727	    -40.80922436	     15.88071652	     16.72209465	     43.32735768	     -1.50511712	      1.25959167	     -8.56704466	    -14.41178087	      8.94676157	     13.66900865	     15.22294167	    -28.42179391	     -2.65315669	      1.95066726
      2.51000000	     13.42440145	      1.14728458	     -1.38865850	      0.63387510	      0.95328163	     -0.00871507	    -15.07053114	     -7.60593662	     -3.93960206	    -42.11689314	     15.13678761	     16.61048747	     43.42727671	     -2.07774852	      1.34365738	     -8.95088809	    -13.81920350	      9.00179742	     14.05268759	     15.14539411	    -28.41893678	     -2.73329174	      1.88934087
      2.51500000	     13.42475916	      1.15174369	     -1.42175430	      0.63806651	      0.95389042	     -0.00950298	    -14.42705461	     -7.80785430	     -4.04412756	    -43.37648890	     14.47373454	     16.37052931	     43.42934506	     -2.65151558	      1.42466529	     -9.32893747	    -13.22696316	      9.02499884	     14.42015552	     15.08476975	    -28.42288112	     -2.80520698	      1.80421609
      2.52000000	     13.43853951	      1.10427234	     -1.49450681	      0.64226913	      0.95451523	     -0.01016101	    -13.79787481	     -7.94274997	     -4.08571719	    -44.56065338	     13.92384119	     15.94710031	     43.33820808	     -3.25565931	      1.44732041	     -9.80957386	    -12.61818674	      9.12627305	     14.89848432	     14.90578989	    -28.43685071	     -2.84309413	      1.81491300
      2.52500000	     13.44851663	      1.06717187	     -1.54660356	      0.64643641	      0.95511714	     -0.01083958	    -13.16441743	     -8.08108102	     -4.17260800	    -45.70017130	     13.49402686	     15.41305054	     43.05710742	     -3.85229310	      1.48859934	    -10.24038141	    -12.00329278	      9.16915151	     15.32123590	     14.68049398	    -28.44918056	     -2.88106533	      1.79896409
      2.53000000	     13.42977840	      1.05411216	     -1.57271183	      0.65059745	      0.95566788	     -0.01155538	    -12.50886428	     -8.23728864	     -4.30865633	    -46.78181473	     13.22628794	     14.80221526	     42.82136119	     -4.42515654	      1.56459901	    -10.59929895	    -11.35335735	      9.13417662	     15.67419623	     14.56949315	    -28.43078766	     -2.92970856	      1.70580374
      2.53500000	     13.43911905	      0.98859349	     -1.61988267	      0.65471341	      0.95623870	     -0.01217453	    -11.87260005	     -8.33347826	     -4.42098151	    -47.83486177	     13.23442830	     14.35900066	     39.04639625	     -4.99029122	      1.57050745	    -11.06703080	    -10.81440574	      9.34519874	     16.26398188	     12.56926563	    -28.44650678	     -2.93488490	      1.71745905
      2.54000000	     13.44053793	      0.92208641	     -1.64606129	      0.65879522	      0.95680963	     -0.01280847	    -11.23992898	     -8.40843743	     -4.56347665	    -48.77068523	     13.10430750	     13.48883815	     38.88679355	     -5.55256321	      1.58770903	    -11.43702717	    -10.23280376	      9.34723078	     16.59911533	     12.48189355	    -28.45714737	     -2.92810893	      1.68600143
      2.54500000	     13.45483857	      0.83705657	     -1.67703747	      0.66284816	      0.95739620	     -0.01339099	    -10.62263543	     -8.45575583	     -4.71313760	    -49.63056407	     13.03713705	     12.57725427	     38.56757427	     -6.10919923	      1.57989316	    -11.84477113	     -9.69560181	      9.36795737	     17.00684334	     12.35674923	    -28.48726765	     -2.90616153	      1.67957701
      2.55000000	     13.47479684	      0.77322650	     -1.72433718	      0.66691250	      0.95795836	     -0.01392920	    -10.00304258	     -8.53700555	     -4.87863663	    -50.47060681	     13.27591539	     11.98389198	     35.33217988	     -6.65756811	      1.59149593	    -12.29906236	     -9.20383894	      9.52526442	     17.57415447	     10.74301483	    -28.51941755	     -2.91296497	      1.67635472
      2.55500000	     13.47398404	      0.67488494	     -1.71179584	      0.67089865	      0.95851381	     -0.01453940	     -9.38428224	     -8.54663911	     -5.09304820	    -51.17571210	     13.33675328	     10.99421410	     35.17479646	     -7.16588096	      1.57066524	    -12.57455336	     -8.71580071	      9.52913942	     17.82249893	     10.65478005	    -28.54155416	     -2.85356709	      1.62789625
      2.56000000	     13.48616287	      0.56568298	     -1.73037921	      0.67487874	      0.95908893	     -0.01504604	     -8.77386741	     -8.54021961	     -5.28215086	    -51.80934881	     13.44322735	     10.07085412	     34.91049736	     -7.67560500	      1.53286538	    -12.92057899	     -8.26317875	      9.55353656	     18.17333365	     10.53903777	    -28.57806537	     -2.80100573	      1.62319639
      2.56500000	     13.51897481	      0.46339825	     -1.75824789	      0.67885765	      0.95964933	     -0.01552337	     -8.18874259	     -8.54384758	     -5.47833949	    -52.40022263	     13.89995488	      9.47184859	     31.84884327	     -8.18743257	      1.49776487	    -13.29439714	     -7.87162361	      9.76087739	     18.66309461	      8.68785401	    -28.63663220	     -2.75743140	      1.63557319
      2.57000000	     13.51987148	      0.37434910	     -1.73591415	      0.68278192	      0.96016670	     -0.01609223	     -7.57864594	     -8.55243242	     -5.74547822	    -52.89286508	     14.12583641	      8.70373887	     31.78211939	     -8.64665126	      1.47981967	    -13.50411915	     -7.48049230	      9.74360295	     18.86804270	      8.63600503	    -28.66988297	     -2.69842898	      1.57590614
